<svg width="369" height="137" viewBox="0 0 369 137" fill="none" xmlns="http://www.w3.org/2000/svg">
<path d="M339.535 31.1925L331.744 27.3921H323.4L315.413 31.1925L320.123 39.8531C320.297 40.1725 320.631 40.3725 320.994 40.3752L333.717 40.4703C334.081 40.473 334.417 40.278 334.596 39.9611L339.535 31.1925Z" fill="white"/>
<path d="M339.535 31.1925L346.513 42.4956C346.61 42.6535 346.662 42.8354 346.662 43.021V54.7837V60.7195M339.535 31.1925L331.744 27.3921M339.535 31.1925L348.268 19.8285C348.49 19.5401 348.537 19.154 348.392 18.8204L341.948 4M339.535 31.1925L334.596 39.9611C334.417 40.278 334.081 40.473 333.717 40.4703L320.994 40.3752C320.631 40.3725 320.297 40.1725 320.123 39.8531L315.413 31.1925M346.662 60.7195H355.775C356.113 60.7195 356.428 60.5488 356.613 60.2658L362.023 51.9701C362.213 51.6795 362.238 51.3115 362.09 50.9976L356.317 38.7407M346.662 60.7195V79.4056M331.744 27.3921H323.4M331.744 27.3921L334.746 15.1815C334.789 15.0073 334.784 14.8247 334.732 14.653L332.814 8.31845M315.413 31.1925L323.4 27.3921M315.413 31.1925L307.671 42.4815C307.557 42.648 307.496 42.8452 307.496 43.0471V54.7837M315.413 31.1925L307.807 19.8264C307.614 19.5373 307.585 19.1684 307.73 18.8524L314.562 4M323.4 27.3921L320.485 15.2494C320.433 15.0329 320.455 14.8053 320.547 14.6026L323.4 8.31845M346.662 107.836L337.343 123.412C337.162 123.714 336.836 123.899 336.485 123.899H319.854M346.662 107.836V79.4056M346.662 107.836L361.429 112.628C361.934 112.791 362.222 113.321 362.087 113.834L357.653 130.644M346.662 79.4056H353.953C354.186 79.4056 354.411 79.3247 354.59 79.1768L359.428 75.1828C359.9 74.7933 360.608 74.915 360.922 75.4397L365 82.2416M319.854 110.084H332.275C332.578 110.084 332.864 109.946 333.054 109.71L338.809 102.559C338.952 102.381 339.03 102.16 339.03 101.932V51.5026" stroke="white" stroke-width="5" stroke-linecap="square"/>
<path d="M30.6883 43.3947C32.0654 42.281 33.7375 41.7243 35.7046 41.7243C37.7375 41.7243 39.4424 42.4551 40.8195 43.9168C42.2621 45.3785 42.9834 47.6406 42.9834 50.703V104.286C42.9834 107.209 42.5572 109.228 41.7046 110.341C39.9997 112.43 37.5081 113.474 34.2293 113.474H2C0.895431 113.474 0 112.578 0 111.474V108.374C0 107.27 0.895431 106.374 2 106.374H6.19668V21.7833H2.09835C0.993783 21.7833 0.0983526 20.8879 0.0983526 19.7833V16.7882C0.0983526 15.6836 0.993783 14.7882 2.09835 14.7882H20.6556C27.3441 14.7882 30.6883 17.8855 30.6883 24.0801V43.3947ZM16.9309 52.5785C20.5483 50.1676 22.7212 46.1081 22.7212 41.7609V30.2423C22.7212 25.5705 18.934 21.7833 14.2622 21.7833V54.3572L16.9309 52.5785ZM35.1144 63.7624C35.1144 57.3748 27.9971 53.5632 22.6803 57.1037L14.2622 62.7094V106.27H35.1144V63.7624ZM66.7514 113.682C61.6366 113.682 59.0792 111.003 59.0792 105.643V68.2669H54.7841C53.6796 68.2669 52.7841 67.3715 52.7841 66.2669V63.1675C52.7841 62.0629 53.6796 61.1675 54.7841 61.1675H65.0463C66.1509 61.1675 67.0463 62.0629 67.0463 63.1675V106.374L86.6201 93.3238V68.2669H83.8004C82.6958 68.2669 81.8004 67.3715 81.8004 66.2669V63.1675C81.8004 62.0629 82.6958 61.1675 83.8004 61.1675H92.5872C93.6918 61.1675 94.5872 62.0629 94.5872 63.1675V106.374H98.784C99.8886 106.374 100.784 107.27 100.784 108.374V111.474C100.784 112.578 99.8886 113.474 98.784 113.474H88.6201C87.5155 113.474 86.6201 112.578 86.6201 111.474V101.78L70.2923 112.638C69.243 113.334 68.0627 113.682 66.7514 113.682ZM146.065 68.3715V127.359C146.065 130.282 145.377 132.51 143.999 134.041C142.687 135.572 140.36 136.338 137.015 136.338H115.213C114.108 136.338 113.213 135.442 113.213 134.338V124.139C113.213 123.035 114.108 122.139 115.213 122.139H117.901C119.006 122.139 119.901 123.035 119.901 124.139V129.134H138V101.885L121.18 113.16C119.737 114.065 118.131 114.518 116.36 114.518C114.655 114.518 113.114 113.821 111.737 112.43C110.36 110.968 109.672 109.193 109.672 107.105V70.4594C109.672 67.0489 110.098 64.8217 110.95 63.7776C112.393 62.1072 114.753 61.272 118.032 61.272H150.262C151.366 61.272 152.262 62.1674 152.262 63.272V66.3715C152.262 67.476 151.366 68.3715 150.262 68.3715H146.065ZM138 68.3715H117.344V97.8628C117.344 101.857 121.796 104.239 125.119 102.022L138 93.4281V68.3715ZM173.125 44.4161C174.229 44.4161 175.125 45.3116 175.125 46.4161V61.272H181.091C182.195 61.272 183.091 62.1674 183.091 63.272V66.789C183.091 67.8936 182.195 68.789 181.091 68.789H175.125V106.374H182.468C183.573 106.374 184.468 107.27 184.468 108.374V111.474C184.468 112.578 183.573 113.474 182.468 113.474H176.207C173.256 113.474 171.058 112.673 169.615 111.072C168.174 109.402 167.453 106.583 167.453 102.616V68.789H162.173C161.069 68.789 160.173 67.8936 160.173 66.789V63.272C160.173 62.1674 161.069 61.272 162.173 61.272H167.453V46.4161C167.453 45.3116 168.348 44.4161 169.453 44.4161H173.125ZM230.014 106.374C231.119 106.374 232.014 107.27 232.014 108.374V111.474C232.014 112.578 231.119 113.474 230.014 113.474H197.786C194.442 113.474 192.179 112.777 190.999 111.386C189.949 110.133 189.426 107.766 189.426 104.286V100.423C189.426 97.9175 189.72 96.2124 190.31 95.3074C191.161 93.985 193.097 92.3493 196.113 90.4005L217.752 76.0972V68.3715H198.474V72.4268C198.474 73.5314 197.578 74.4268 196.474 74.4268H194.179C193.074 74.4268 192.179 73.5314 192.179 72.4268V63.272C192.179 62.1674 193.074 61.272 194.179 61.272H216.769C220.113 61.272 222.44 62.0376 223.753 63.5689C225.129 65.1002 225.819 67.3274 225.819 70.2507V106.374H230.014ZM217.752 90.0399C217.752 87.6469 215.088 86.2171 213.094 87.54L199.977 96.2419C198.301 97.3535 197.294 99.2307 197.294 101.242V106.374H217.752V90.0399ZM255.144 106.374H259.538C260.643 106.374 261.538 107.27 261.538 108.374V111.474C261.538 112.578 260.643 113.474 259.538 113.474H242.882C241.778 113.474 240.882 112.578 240.882 111.474V108.374C240.882 107.27 241.778 106.374 242.882 106.374H247.08V51.3892H242.882C241.778 51.3892 240.882 50.4938 240.882 49.3892V46.2898C240.882 45.1852 241.778 44.2898 242.882 44.2898H253.144C254.249 44.2898 255.144 45.1852 255.144 46.2898V106.374ZM312.316 106.374C313.421 106.374 314.316 107.27 314.316 108.374V111.474C314.316 112.578 313.421 113.474 312.316 113.474H310.145C307.432 113.474 304.865 112.25 303.156 110.144L284.513 87.164V106.374H288.414C289.518 106.374 290.414 107.27 290.414 108.374V111.474C290.414 112.578 289.518 113.474 288.414 113.474H272.348C271.244 113.474 270.348 112.578 270.348 111.474V108.374C270.348 107.27 271.244 106.374 272.348 106.374H276.645V51.3892H272.348C271.244 51.3892 270.348 50.4938 270.348 49.3892V46.2898C270.348 45.1852 271.244 44.2898 272.348 44.2898H282.119C283.224 44.2898 284.119 45.1852 284.119 46.2898V84.6583L305.955 61.8877C306.332 61.4944 306.853 61.272 307.398 61.272H312.217C313.322 61.272 314.217 62.1674 314.217 63.272V66.3715C314.217 67.476 313.322 68.3715 312.217 68.3715H308.808L292.776 85.8067L309.201 106.374H312.316Z" fill="white"/>
</svg>
